# xmcd CD database file
#
# Track frame offsets:
#	150
#	15083
#	37995
#	56134
#	78669
#	96959
#	113800
#	135355
#	157041
#	174582
#	194560
#	217464
#	241493
#	258745
#	283344
#	309732
#	330344
#	344444
#
# Disc length: 4803 seconds
#
# Revision: 14
# Processed by: cddbd v1.5.2PL0 Copyright (c) Steve Scherf et al.
# Submitted via: CDex 1.70beta2
#
DISCID=1112c112
DTITLE=Verschiedene - Mystera III
DYEAR=1999
DGENRE=New Age
TTITLE0=Era - Cathar Rhythm
TTITLE1=Enigma - The Child In Us
TTITLE2=Sarah Brightman - Eden
TTITLE3=Antaeus - Kyrie
TTITLE4=Salanee - Pearls
TTITLE5=Shabala - Amitaya
TTITLE6=Varymbaalha - African Dream
TTITLE7=Oliver Shanti and Friends - Amitabha
TTITLE8=Mike Oldfield - Sentinel
TTITLE9=Clannad - A Bridge (That Carries Us Over)
TTITLE10=Cecilia - Daughter Of The Midnight Sun
TTITLE11=Pilgrimage - Rain Or Shine
TTITLE12=Delorean - Gloria
TTITLE13=Mind Over Matter - Shangri-La
TTITLE14=Divine Works - Ancient Person Of My Heart
TTITLE15=Cheyenne - Eternal Faith
TTITLE16=Karl Jenkins - Palus Nebularum
TTITLE17=Vangelis - Chariots Of Fire
EXTD=by Klaus Andres (06.08.2006) YEAR: 1999
EXTT0=
EXTT1=
EXTT2=
EXTT3=
EXTT4=
EXTT5=
EXTT6=
EXTT7=
EXTT8=
EXTT9=
EXTT10=
EXTT11=
EXTT12=
EXTT13=
EXTT14=
EXTT15=
EXTT16=
EXTT17=
PLAYORDER=
